<svg width="24" height="24" viewBox="0 0 24 24" fill="none" xmlns="http://www.w3.org/2000/svg">
<path fill-rule="evenodd" clip-rule="evenodd" d="M12 12C12 11.893 12.023 11.784 12.072 11.684C12.1209 11.5808 12.1974 11.4933 12.293 11.431L19.153 7.081C19.429 6.907 19.776 7.021 19.928 7.335C19.9756 7.43355 20.0002 7.54158 20 7.651V16.349C20 16.709 19.745 17 19.43 17C19.3318 16.9996 19.2357 16.9711 19.153 16.918L12.293 12.569C12.2007 12.5061 12.1255 12.421 12.0743 12.3217C12.0231 12.2223 11.9976 12.1117 12 12V16.35C12 16.71 11.745 17.001 11.43 17.001C11.3318 17.0006 11.2357 16.9721 11.153 16.919L4.29302 12.57C4.01802 12.396 3.91902 12 4.07202 11.685C4.12087 11.5818 4.19737 11.4943 4.29302 11.432L11.153 7.082C11.429 6.908 11.776 7.022 11.928 7.336C11.9756 7.43455 12.0002 7.54258 12 7.652V12Z" fill="#F0F0F0"/>
</svg>
