<svg width="24" height="24" viewBox="0 0 24 24" fill="none" xmlns="http://www.w3.org/2000/svg">
<path fill-rule="evenodd" clip-rule="evenodd" d="M13.17 6.99999C13.3766 6.41446 13.7597 5.90743 14.2666 5.54878C14.7735 5.19014 15.3791 4.99754 16 4.99754C16.6209 4.99754 17.2265 5.19014 17.7334 5.54878C18.2403 5.90743 18.6234 6.41446 18.83 6.99999H21C21.2652 6.99999 21.5196 7.10535 21.7071 7.29289C21.8946 7.48042 22 7.73478 22 7.99999C22 8.26521 21.8946 8.51956 21.7071 8.7071C21.5196 8.89464 21.2652 8.99999 21 8.99999H18.83C18.6234 9.58553 18.2403 10.0926 17.7334 10.4512C17.2265 10.8098 16.6209 11.0024 16 11.0024C15.3791 11.0024 14.7735 10.8098 14.2666 10.4512C13.7597 10.0926 13.3766 9.58553 13.17 8.99999H3C2.73478 8.99999 2.48043 8.89464 2.29289 8.7071C2.10536 8.51956 2 8.26521 2 7.99999C2 7.73478 2.10536 7.48042 2.29289 7.29289C2.48043 7.10535 2.73478 6.99999 3 6.99999H13.17ZM5.17 15C5.3766 14.4145 5.75974 13.9074 6.2666 13.5488C6.77346 13.1901 7.37909 12.9975 8 12.9975C8.62091 12.9975 9.22654 13.1901 9.7334 13.5488C10.2403 13.9074 10.6234 14.4145 10.83 15H21C21.2652 15 21.5196 15.1054 21.7071 15.2929C21.8946 15.4804 22 15.7348 22 16C22 16.2652 21.8946 16.5196 21.7071 16.7071C21.5196 16.8946 21.2652 17 21 17H10.83C10.6234 17.5855 10.2403 18.0926 9.7334 18.4512C9.22654 18.8098 8.62091 19.0024 8 19.0024C7.37909 19.0024 6.77346 18.8098 6.2666 18.4512C5.75974 18.0926 5.3766 17.5855 5.17 17H3C2.73478 17 2.48043 16.8946 2.29289 16.7071C2.10536 16.5196 2 16.2652 2 16C2 15.7348 2.10536 15.4804 2.29289 15.2929C2.48043 15.1054 2.73478 15 3 15H5.17ZM16 8.99999C16.2652 8.99999 16.5196 8.89464 16.7071 8.7071C16.8946 8.51956 17 8.26521 17 7.99999C17 7.73478 16.8946 7.48042 16.7071 7.29289C16.5196 7.10535 16.2652 6.99999 16 6.99999C15.7348 6.99999 15.4804 7.10535 15.2929 7.29289C15.1054 7.48042 15 7.73478 15 7.99999C15 8.26521 15.1054 8.51956 15.2929 8.7071C15.4804 8.89464 15.7348 8.99999 16 8.99999V8.99999ZM8 17C8.26522 17 8.51957 16.8946 8.70711 16.7071C8.89464 16.5196 9 16.2652 9 16C9 15.7348 8.89464 15.4804 8.70711 15.2929C8.51957 15.1054 8.26522 15 8 15C7.73478 15 7.48043 15.1054 7.29289 15.2929C7.10536 15.4804 7 15.7348 7 16C7 16.2652 7.10536 16.5196 7.29289 16.7071C7.48043 16.8946 7.73478 17 8 17Z" fill="#F0F0F0"/>
</svg>
