<svg width="24" height="24" viewBox="0 0 24 24" fill="none" xmlns="http://www.w3.org/2000/svg">
<path d="M12 12V7.64999C12 7.53999 12.025 7.42999 12.072 7.33399C12.224 7.01999 12.572 6.90599 12.847 7.08099L19.707 11.43C19.8 11.489 19.877 11.577 19.928 11.683C20.081 11.997 19.982 12.393 19.707 12.568L12.847 16.918C12.7643 16.9708 12.6682 16.9989 12.57 16.999C12.255 16.999 12 16.708 12 16.348V11.998C12 12.228 11.894 12.449 11.707 12.568L4.847 16.918C4.76436 16.9711 4.66826 16.9996 4.57 17C4.255 17 4 16.709 4 16.349V7.65099C4 7.54099 4.025 7.43099 4.072 7.33499C4.224 7.02099 4.572 6.90699 4.847 7.08199L11.707 11.431C11.8 11.49 11.877 11.578 11.928 11.684C11.977 11.784 12 11.893 12 11.999V12Z" fill="#F0F0F0"/>
</svg>
