<svg width="24" height="24" viewBox="0 0 24 24" fill="none" xmlns="http://www.w3.org/2000/svg">
<path fill-rule="evenodd" clip-rule="evenodd" d="M14.839 14.92C15.3365 14.4033 16.0027 14.082 16.7168 14.0142C17.4309 13.9465 18.1456 14.1369 18.7314 14.5508C19.3172 14.9648 19.7353 15.5749 19.9098 16.2707C20.0844 16.9664 20.0039 17.7016 19.683 18.3431C19.362 18.9846 18.8219 19.4899 18.1604 19.7673C17.4989 20.0448 16.76 20.076 16.0774 19.8554C15.3949 19.6348 14.814 19.177 14.44 18.5649C14.0661 17.9528 13.9238 17.227 14.039 16.519L9.16599 14.076C8.75172 14.5084 8.21753 14.8069 7.63218 14.9331C7.04682 15.0593 6.43709 15.0075 5.88145 14.7842C5.32581 14.561 4.84968 14.1766 4.51435 13.6805C4.17902 13.1844 3.99982 12.5993 3.99982 12.0005C3.99982 11.4017 4.17902 10.8166 4.51435 10.3205C4.84968 9.82438 5.32581 9.43998 5.88145 9.21675C6.43709 8.99352 7.04682 8.94168 7.63218 9.0679C8.21753 9.19412 8.75172 9.49262 9.16599 9.925L14.039 7.482C13.9238 6.77401 14.0661 6.04819 14.44 5.43609C14.814 4.824 15.3949 4.36615 16.0774 4.14556C16.76 3.92497 17.4989 3.95622 18.1604 4.23366C18.8219 4.51111 19.362 5.01637 19.683 5.65786C20.0039 6.29934 20.0844 7.03459 19.9098 7.73032C19.7353 8.42605 19.3172 9.03619 18.7314 9.45016C18.1456 9.86412 17.4309 10.0545 16.7168 9.98677C16.0027 9.91904 15.3365 9.5977 14.839 9.081L9.96199 11.519C10.0134 11.8376 10.0134 12.1624 9.96199 12.481L14.839 14.919V14.92ZM17 8C17.2652 8 17.5196 7.89464 17.7071 7.7071C17.8946 7.51957 18 7.26521 18 7C18 6.73478 17.8946 6.48043 17.7071 6.29289C17.5196 6.10535 17.2652 6 17 6C16.7348 6 16.4804 6.10535 16.2929 6.29289C16.1053 6.48043 16 6.73478 16 7C16 7.26521 16.1053 7.51957 16.2929 7.7071C16.4804 7.89464 16.7348 8 17 8ZM17 18C17.2652 18 17.5196 17.8946 17.7071 17.7071C17.8946 17.5196 18 17.2652 18 17C18 16.7348 17.8946 16.4804 17.7071 16.2929C17.5196 16.1054 17.2652 16 17 16C16.7348 16 16.4804 16.1054 16.2929 16.2929C16.1053 16.4804 16 16.7348 16 17C16 17.2652 16.1053 17.5196 16.2929 17.7071C16.4804 17.8946 16.7348 18 17 18ZM6.99999 13C7.26521 13 7.51956 12.8946 7.7071 12.7071C7.89463 12.5196 7.99999 12.2652 7.99999 12C7.99999 11.7348 7.89463 11.4804 7.7071 11.2929C7.51956 11.1054 7.26521 11 6.99999 11C6.73477 11 6.48042 11.1054 6.29288 11.2929C6.10535 11.4804 5.99999 11.7348 5.99999 12C5.99999 12.2652 6.10535 12.5196 6.29288 12.7071C6.48042 12.8946 6.73477 13 6.99999 13Z" fill="#F0F0F0"/>
</svg>
